<mxfile host="65bd71144e">
    <diagram id="bLYBYpxpjl6lY9xSCVEU" name="Page-1">
        <mxGraphModel dx="546" dy="749" grid="1" gridSize="10" guides="1" tooltips="1" connect="1" arrows="1" fold="1" page="1" pageScale="1" pageWidth="850" pageHeight="1100" math="0" shadow="0">
            <root>
                <mxCell id="0"/>
                <mxCell id="1" parent="0"/>
                <mxCell id="2" value="start" style="ellipse;whiteSpace=wrap;html=1;" vertex="1" parent="1">
                    <mxGeometry x="210" width="120" height="100" as="geometry"/>
                </mxCell>
                <mxCell id="6" value="" style="shape=flexArrow;endArrow=classic;html=1;" edge="1" parent="1">
                    <mxGeometry width="50" height="50" relative="1" as="geometry">
                        <mxPoint x="269.5" y="110" as="sourcePoint"/>
                        <mxPoint x="269.5" y="160" as="targetPoint"/>
                    </mxGeometry>
                </mxCell>
                <mxCell id="7" value="Set variable i to 0&amp;nbsp;&lt;br&gt;i =0" style="rounded=0;whiteSpace=wrap;html=1;" vertex="1" parent="1">
                    <mxGeometry x="40" y="160" width="460" height="60" as="geometry"/>
                </mxCell>
                <mxCell id="8" value="" style="endArrow=classic;html=1;" edge="1" parent="1">
                    <mxGeometry width="50" height="50" relative="1" as="geometry">
                        <mxPoint x="269.5" y="220" as="sourcePoint"/>
                        <mxPoint x="269.87577639751544" y="280.12422360248456" as="targetPoint"/>
                    </mxGeometry>
                </mxCell>
                <mxCell id="10" value="i &amp;lt; 5" style="triangle;whiteSpace=wrap;html=1;rotation=-90;" vertex="1" parent="1">
                    <mxGeometry x="245" y="280" width="50" height="60" as="geometry"/>
                </mxCell>
                <mxCell id="13" value="print i" style="rounded=1;whiteSpace=wrap;html=1;" vertex="1" parent="1">
                    <mxGeometry x="220" y="370" width="120" height="60" as="geometry"/>
                </mxCell>
                <mxCell id="16" value="" style="endArrow=classic;startArrow=classic;html=1;" edge="1" parent="1">
                    <mxGeometry width="50" height="50" relative="1" as="geometry">
                        <mxPoint x="295" y="330" as="sourcePoint"/>
                        <mxPoint x="245" y="380" as="targetPoint"/>
                    </mxGeometry>
                </mxCell>
                <mxCell id="gYmqpQkfVe_vvycU7HLv-16" value="True" style="text;html=1;align=center;verticalAlign=middle;whiteSpace=wrap;rounded=0;" vertex="1" parent="1">
                    <mxGeometry x="185" y="320" width="60" height="30" as="geometry"/>
                </mxCell>
                <mxCell id="gYmqpQkfVe_vvycU7HLv-17" value="Increase i by 1&lt;br&gt;i= i +1" style="rounded=0;whiteSpace=wrap;html=1;" vertex="1" parent="1">
                    <mxGeometry x="220" y="470" width="120" height="60" as="geometry"/>
                </mxCell>
                <mxCell id="gYmqpQkfVe_vvycU7HLv-19" value="" style="endArrow=classic;startArrow=classic;html=1;" edge="1" parent="1" target="13">
                    <mxGeometry width="50" height="50" relative="1" as="geometry">
                        <mxPoint x="270" y="480" as="sourcePoint"/>
                        <mxPoint x="320" y="430" as="targetPoint"/>
                    </mxGeometry>
                </mxCell>
                <mxCell id="gYmqpQkfVe_vvycU7HLv-23" value="" style="endArrow=classic;startArrow=classic;html=1;" edge="1" parent="1" target="10">
                    <mxGeometry width="50" height="50" relative="1" as="geometry">
                        <mxPoint x="340" y="510" as="sourcePoint"/>
                        <mxPoint x="390" y="460" as="targetPoint"/>
                        <Array as="points">
                            <mxPoint x="380" y="270"/>
                        </Array>
                    </mxGeometry>
                </mxCell>
                <mxCell id="gYmqpQkfVe_vvycU7HLv-24" value="Print done&amp;nbsp;" style="rounded=0;whiteSpace=wrap;html=1;" vertex="1" parent="1">
                    <mxGeometry x="220" y="560" width="120" height="60" as="geometry"/>
                </mxCell>
                <mxCell id="gYmqpQkfVe_vvycU7HLv-25" value="" style="endArrow=classic;html=1;entryX=0.5;entryY=1;entryDx=0;entryDy=0;" edge="1" parent="1" target="gYmqpQkfVe_vvycU7HLv-24">
                    <mxGeometry width="50" height="50" relative="1" as="geometry">
                        <mxPoint x="280" y="690" as="sourcePoint"/>
                        <mxPoint x="290" y="620" as="targetPoint"/>
                        <Array as="points">
                            <mxPoint x="280" y="650"/>
                        </Array>
                    </mxGeometry>
                </mxCell>
                <mxCell id="gYmqpQkfVe_vvycU7HLv-26" value="Done" style="ellipse;whiteSpace=wrap;html=1;" vertex="1" parent="1">
                    <mxGeometry x="220" y="690" width="120" height="80" as="geometry"/>
                </mxCell>
                <mxCell id="gYmqpQkfVe_vvycU7HLv-28" value="" style="endArrow=classic;startArrow=classic;html=1;" edge="1" parent="1" target="10">
                    <mxGeometry width="50" height="50" relative="1" as="geometry">
                        <mxPoint x="210" y="590" as="sourcePoint"/>
                        <mxPoint x="260" y="270" as="targetPoint"/>
                        <Array as="points">
                            <mxPoint x="80" y="280"/>
                        </Array>
                    </mxGeometry>
                </mxCell>
                <mxCell id="gYmqpQkfVe_vvycU7HLv-30" value="False&lt;div&gt;&lt;br&gt;&lt;/div&gt;" style="text;html=1;align=center;verticalAlign=middle;whiteSpace=wrap;rounded=0;" vertex="1" parent="1">
                    <mxGeometry x="180" y="240" width="60" height="30" as="geometry"/>
                </mxCell>
            </root>
        </mxGraphModel>
    </diagram>
    <diagram id="dUTAFqRCdbdcJ6-r5RzA" name="Page-2">
        <mxGraphModel dx="546" dy="749" grid="1" gridSize="10" guides="1" tooltips="1" connect="1" arrows="1" fold="1" page="1" pageScale="1" pageWidth="850" pageHeight="1100" math="0" shadow="0">
            <root>
                <mxCell id="0"/>
                <mxCell id="1" parent="0"/>
            </root>
        </mxGraphModel>
    </diagram>
</mxfile>